<?xml version="1.0" standalone="no"?>
<!DOCTYPE svg PUBLIC "-//W3C//DTD SVG 20010904//EN"
 "http://www.w3.org/TR/2001/REC-SVG-20010904/DTD/svg10.dtd">
<svg version="1.0" xmlns="http://www.w3.org/2000/svg"
 width="626.000000pt" height="626.000000pt" viewBox="0 0 626.000000 626.000000"
 preserveAspectRatio="xMidYMid meet">
<metadata>
Created by potrace 1.16, written by Peter Selinger 2001-2019
</metadata>
<g transform="translate(0.000000,626.000000) scale(0.100000,-0.100000)"
fill="#000000" stroke="none">
<path d="M3235 6069 c-38 -4 -90 -15 -114 -24 -56 -19 -91 -20 -91 0 0 8 -4
15 -9 15 -11 0 -99 -69 -126 -100 -25 -27 -66 -49 -82 -43 -7 3 -13 16 -13 30
0 24 -2 23 -52 -22 -65 -58 -136 -95 -184 -95 -31 0 -37 4 -47 30 -6 17 -14
30 -18 30 -12 0 -70 -72 -117 -144 -53 -84 -66 -95 -109 -96 -27 0 -37 -7 -58
-40 -29 -46 -52 -54 -120 -41 -27 5 -54 7 -59 4 -5 -3 -6 -54 -3 -117 6 -107
5 -113 -23 -171 -32 -68 -60 -167 -60 -215 0 -31 1 -32 18 -17 10 10 24 17 30
17 18 0 25 -65 12 -105 -9 -27 -9 -39 0 -50 7 -8 12 -69 14 -157 2 -78 7 -155
11 -170 6 -23 11 -26 38 -22 45 7 63 -11 91 -86 13 -36 42 -113 65 -172 22
-59 41 -113 41 -122 0 -8 4 -17 9 -20 23 -15 51 276 51 539 0 156 3 195 16
213 8 12 21 22 29 22 8 0 18 6 22 13 13 23 61 49 74 41 7 -4 9 -3 6 3 -11 17
145 73 203 73 27 0 113 -52 105 -63 -3 -4 -2 -5 2 -2 3 3 18 -3 32 -12 37 -24
219 -113 231 -113 6 0 9 -3 7 -7 -3 -5 7 -9 21 -10 15 0 28 -6 30 -12 3 -8 8
-8 15 -3 24 20 159 72 170 65 5 -3 7 -2 4 4 -3 5 11 18 31 27 20 10 56 29 79
42 24 14 45 25 47 25 3 0 20 14 38 31 30 28 37 30 84 25 76 -8 205 -63 271
-116 l58 -47 6 -274 c6 -252 18 -399 38 -453 6 -16 15 0 41 79 18 54 40 115
50 134 10 20 25 61 34 92 20 68 45 93 85 85 27 -6 29 -4 35 31 3 20 6 73 6
117 0 90 16 203 31 221 5 7 9 41 7 76 -3 58 -1 64 20 73 22 9 23 15 19 56 -3
25 -17 72 -32 105 -14 32 -27 72 -28 89 -1 18 -13 39 -31 55 -40 37 -49 118
-16 162 12 16 19 32 17 35 -3 3 -56 8 -119 11 l-113 7 -3 28 c-2 16 2 35 9 43
17 20 2 33 -134 118 -118 75 -142 99 -126 128 12 22 2 23 -133 6 -113 -14
-164 -4 -211 43 -25 26 -29 35 -24 69 4 33 2 40 -11 39 -10 -1 -48 -5 -87 -10z"/>
<path d="M4197 4519 c7 -7 15 -10 18 -7 3 3 -2 9 -12 12 -14 6 -15 5 -6 -5z"/>
<path d="M2025 4509 c-4 -6 -5 -12 -2 -15 2 -3 7 2 10 11 7 17 1 20 -8 4z"/>
<path d="M4164 4509 c-4 -7 -3 -9 4 -5 5 3 13 0 15 -6 4 -9 6 -10 6 -1 1 17
-16 25 -25 12z"/>
<path d="M2215 4100 c-4 -6 -12 -7 -18 -3 -9 5 -9 3 0 -8 6 -8 11 -18 11 -24
1 -16 19 -17 25 0 4 9 1 15 -10 15 -13 0 -13 3 -3 15 7 8 10 15 7 15 -3 0 -9
-5 -12 -10z"/>
<path d="M4009 4094 c0 -5 -2 -20 -5 -33 -4 -21 -2 -22 13 -10 10 7 19 13 20
14 1 0 -5 9 -13 19 -8 11 -14 16 -15 10z"/>
<path d="M2525 3609 c-4 -6 -5 -12 -2 -15 2 -3 7 2 10 11 7 17 1 20 -8 4z"/>
<path d="M2613 3587 c-3 -5 2 -16 11 -26 9 -10 16 -22 16 -27 0 -15 142 -157
160 -159 3 0 16 -8 30 -17 14 -9 37 -22 53 -29 15 -7 27 -16 27 -21 0 -4 7 -8
16 -8 9 0 12 -5 8 -12 -4 -6 -3 -8 2 -5 6 3 48 -7 95 -23 l84 -28 80 21 c44
12 81 25 83 29 2 4 16 5 30 2 19 -4 23 -3 13 4 -11 8 7 20 70 51 46 22 80 40
74 41 -5 0 5 9 23 20 20 12 32 28 33 42 1 17 2 19 6 6 6 -26 20 -22 27 7 4 14
11 25 16 25 17 0 60 55 60 76 0 21 -4 22 -62 17 -35 -2 -85 -11 -113 -18 -136
-37 -382 -46 -502 -20 -108 24 -156 36 -184 47 -33 12 -149 16 -156 5z"/>
<path d="M3687 3583 c-4 -3 -7 -11 -7 -17 0 -6 5 -5 12 2 6 6 9 14 7 17 -3 3
-9 2 -12 -2z"/>
<path d="M2596 3527 c3 -10 9 -15 12 -12 3 3 0 11 -7 18 -10 9 -11 8 -5 -6z"/>
<path d="M2623 3518 c1 -15 6 -23 11 -18 4 4 4 16 -2 26 -9 16 -10 14 -9 -8z"/>
<path d="M2574 3449 c-3 -5 -5 -46 -6 -92 0 -45 -1 -120 -3 -166 -4 -99 4
-103 11 -4 4 70 20 179 23 154 0 -8 4 -11 8 -8 3 4 12 -2 20 -13 8 -11 19 -20
24 -20 6 0 16 -6 23 -12 7 -7 28 -24 46 -38 91 -67 153 -125 196 -182 27 -35
61 -76 76 -93 15 -16 28 -40 28 -52 0 -13 4 -23 10 -23 5 0 7 -7 4 -15 -4 -8
-7 -36 -8 -63 -1 -38 -5 -49 -23 -57 -13 -5 -23 -15 -23 -22 0 -16 -5 -16 -33
-3 -20 9 -20 9 -4 -2 11 -7 37 -28 59 -47 49 -43 88 -64 88 -49 0 6 3 8 6 5 4
-4 2 -12 -4 -19 -7 -9 -5 -19 8 -35 10 -13 22 -23 27 -23 14 0 55 59 48 70 -3
5 0 7 8 4 8 -3 20 2 27 11 7 8 9 15 5 15 -4 0 -2 7 5 15 7 8 17 15 23 15 6 0
2 -7 -9 -16 -10 -8 -12 -12 -4 -8 8 4 22 13 30 21 8 7 26 22 40 32 l25 19 -32
-4 c-24 -3 -35 2 -46 19 -19 29 -47 137 -35 137 5 0 13 12 19 27 19 52 191
275 208 270 4 -1 30 12 57 29 117 75 121 74 118 -21 -2 -41 -6 -80 -10 -86 -4
-7 -3 -9 3 -6 6 4 13 -6 15 -23 3 -18 0 -31 -9 -34 -7 -3 -13 -11 -13 -18 0
-9 3 -9 10 2 5 8 12 11 16 7 4 -3 1 -14 -6 -22 -9 -11 -10 -19 -3 -26 8 -8 18
2 36 33 42 71 49 117 38 223 -6 52 -11 119 -11 150 0 30 -4 55 -8 55 -5 0 -19
-12 -33 -26 -63 -69 -255 -192 -372 -238 -130 -52 -201 -44 -361 36 -92 46
-236 142 -290 193 -20 18 -38 29 -42 24z m691 -719 c15 -6 11 -7 -17 -7 -23 1
-33 4 -25 9 14 9 16 9 42 -2z m-228 -14 c3 -3 1 -6 -6 -6 -9 0 -9 -6 -1 -22
10 -21 10 -22 -4 -5 -8 10 -23 25 -33 32 -16 13 -16 13 10 11 15 -2 31 -6 34
-10z m116 -91 c-7 -21 -12 -19 -10 4 0 11 5 18 9 15 4 -3 5 -11 1 -19z"/>
<path d="M2576 3103 c-6 -14 -5 -15 5 -6 7 7 10 15 7 18 -3 3 -9 -2 -12 -12z"/>
<path d="M2085 2801 c-360 -141 -394 -155 -557 -236 -210 -105 -367 -211 -451
-304 -92 -102 -195 -587 -223 -1059 -6 -102 -10 -120 -40 -179 -53 -104 -46
-212 22 -318 42 -66 175 -195 200 -195 6 0 17 -6 23 -13 6 -8 29 -20 51 -27
22 -7 38 -16 35 -18 -7 -7 171 -76 280 -108 419 -127 1035 -183 1890 -171 759
11 1195 64 1585 194 138 45 320 127 320 144 0 5 7 9 15 9 8 0 15 4 15 10 0 5
4 9 8 7 13 -3 72 50 64 58 -4 5 1 5 12 1 14 -5 17 -2 12 9 -3 8 -2 14 2 12 10
-3 72 67 72 82 0 6 4 11 8 11 9 0 47 108 56 157 6 34 -27 157 -44 168 -6 3
-10 15 -10 26 0 11 -4 17 -10 14 -6 -4 -10 14 -10 46 0 79 -29 379 -50 526
-25 170 -59 318 -105 463 -36 113 -38 116 -105 182 -183 177 -559 362 -1212
598 l-83 30 40 -35 c22 -20 83 -65 135 -102 52 -36 129 -93 170 -125 93 -74
310 -285 310 -302 0 -13 -22 -36 -50 -51 -13 -8 -13 -7 -1 8 12 15 11 17 -3
17 -10 0 -15 4 -12 8 7 12 -121 134 -204 193 -82 58 -200 151 -242 192 -10 9
-18 14 -18 10 0 -5 -5 -1 -10 7 -7 11 -10 1 -10 -35 0 -27 -3 -68 -6 -90 -5
-38 -5 -39 11 -20 16 19 16 19 11 -7 -2 -16 0 -28 5 -28 6 0 7 -9 4 -20 -4
-11 -2 -20 4 -20 6 0 11 -15 11 -32 0 -25 3 -29 10 -18 13 20 13 -2 -1 -37 -5
-15 -7 -25 -3 -21 11 12 34 -20 27 -38 -4 -10 -2 -15 4 -11 6 4 10 -7 11 -27
1 -18 6 -43 11 -57 12 -30 13 -15 2 34 -5 20 -5 37 -1 37 4 0 60 -51 124 -112
l115 -113 -20 -85 c-53 -225 -122 -331 -145 -222 -4 20 -9 44 -11 52 -2 8 -8
62 -13 120 -5 58 -15 137 -22 175 -6 39 -11 73 -10 78 1 4 -3 7 -9 7 -7 0 -9
-8 -4 -22 14 -41 17 -321 5 -433 -42 -396 -194 -874 -434 -1371 l-83 -171 -78
-6 c-43 -4 -159 -7 -258 -7 l-181 0 33 34 c28 29 34 44 37 88 2 29 1 46 -2 38
-17 -38 -68 -70 -115 -70 -36 0 -93 34 -108 65 -8 18 -10 16 -10 -11 -1 -44
23 -98 56 -124 l28 -21 -125 6 c-69 4 -125 7 -126 8 -14 21 -145 307 -201 437
-126 294 -295 838 -263 848 15 5 12 22 -2 19 -9 -1 -12 9 -10 31 1 22 -1 31
-9 26 -8 -5 -8 -1 0 13 6 11 8 22 6 24 -2 3 -11 79 -20 171 -25 266 -4 488 66
701 27 80 30 100 23 157 -4 36 -9 59 -11 53 -3 -7 -11 -13 -19 -13 -8 0 -14
-7 -14 -16 0 -9 -5 -12 -11 -8 -7 4 -19 -2 -28 -13 -9 -11 -61 -54 -116 -96
-55 -41 -115 -88 -134 -104 -19 -15 -38 -27 -43 -26 -4 2 -4 -5 -1 -15 3 -9 3
-14 -1 -11 -9 8 -84 -68 -88 -89 -2 -9 -8 -17 -13 -17 -6 0 -16 -4 -22 -8 -12
-8 -17 -2 -14 15 0 5 -4 7 -11 5 -90 -18 233 293 467 450 39 26 84 60 101 76
18 15 40 34 50 42 11 8 15 14 9 14 -5 0 -145 -53 -310 -118z m116 -468 c-5
-10 -11 -34 -15 -53 -11 -73 -35 -268 -41 -340 -9 -115 -23 -160 -50 -160 -15
0 -27 12 -43 43 -42 84 -72 185 -72 240 0 18 -5 38 -11 44 -9 9 17 41 104 127
110 109 151 140 128 99z m-994 -212 c21 -10 52 -34 68 -53 17 -18 26 -30 21
-26 -5 4 -15 0 -23 -10 -13 -16 -13 -15 -4 4 7 16 6 23 -9 32 -16 9 -20 8 -25
-8 -6 -18 -11 -15 -58 23 -29 23 -63 49 -77 58 -24 17 -24 17 22 8 26 -4 64
-17 85 -28z m3958 12 c-16 -8 -54 -38 -84 -67 -36 -35 -49 -43 -41 -26 l13 25
-22 -19 c-22 -20 -30 -9 -9 12 18 18 -3 14 -24 -5 -10 -9 -18 -11 -18 -5 0 30
128 102 180 102 l35 -1 -30 -16z m-3905 -83 c0 -5 -4 -10 -10 -10 -5 0 -10 5
-10 10 0 6 5 10 10 10 6 0 10 -4 10 -10z m-10 -30 c0 -5 -2 -10 -4 -10 -3 0
-8 5 -11 10 -3 6 -1 10 4 10 6 0 11 -4 11 -10z m3338 -192 c-9 -5 -5 -7 11 -6
43 5 48 -24 16 -91 -25 -53 -30 -58 -41 -43 -9 12 -9 19 -1 24 6 4 8 10 5 13
-4 4 -3 18 2 31 5 13 6 26 1 28 -5 3 -7 18 -5 33 1 15 -5 37 -14 48 -11 13 -7
11 11 -4 20 -18 24 -27 15 -33z m-2911 -59 c0 -50 4 -74 14 -80 12 -7 12 -9 0
-9 -10 0 -10 -6 4 -26 9 -14 14 -28 11 -31 -2 -3 -25 35 -50 84 l-45 90 22 21
c36 37 44 28 44 -49z m520 9 c-3 -8 -6 -5 -6 6 -1 11 2 17 5 13 3 -3 4 -12 1
-19z m2361 -168 c-7 -10 -14 -17 -17 -15 -4 4 18 35 25 35 2 0 -1 -9 -8 -20z"/>
<path d="M1655 1821 c-3 -5 -2 -12 3 -15 5 -3 9 1 9 9 0 17 -3 19 -12 6z"/>
<path d="M3094 2475 c-9 -14 -14 -31 -11 -38 3 -8 1 -20 -5 -28 -8 -11 -8 -9
-4 6 3 11 -34 -23 -84 -74 l-90 -95 11 -35 c14 -43 31 -72 77 -129 l33 -42
-28 -24 c-110 -93 -203 -488 -203 -865 l0 -90 47 -73 c26 -40 49 -75 53 -78 3
-3 19 -23 35 -45 52 -71 178 -214 193 -220 27 -10 199 178 270 295 11 20 30
47 42 60 31 36 34 59 27 239 -10 284 -53 514 -121 656 -30 64 -84 142 -70 104
3 -10 -2 -19 -12 -23 -18 -7 -34 8 -34 32 0 8 -5 10 -12 6 -7 -4 -5 1 4 11 15
16 19 17 35 4 16 -13 17 -12 4 3 -12 16 -9 22 19 55 32 36 80 130 80 156 0 7
-21 33 -47 58 -27 25 -68 72 -92 105 -47 62 -78 94 -92 94 -5 0 -16 -11 -25
-25z m86 -485 c-13 -8 -12 -11 5 -25 19 -14 19 -15 1 -8 -13 4 -17 3 -13 -5 9
-13 -49 -56 -66 -49 -9 3 -12 18 -9 42 3 22 9 35 16 32 7 -3 23 1 37 9 27 15
52 19 29 4z m-199 -123 c-16 -47 -28 -67 -47 -76 -31 -14 -31 -14 -31 4 0 8 4
15 9 15 4 0 8 8 8 18 0 10 6 24 13 31 10 11 9 12 -3 6 -13 -8 -13 -7 -1 8 7 9
10 17 7 17 -4 0 -1 6 6 13 19 16 52 35 57 31 1 -1 -7 -32 -18 -67z m336 47
c-3 -4 0 -19 9 -35 18 -36 18 -41 -9 -56 -23 -13 -45 -17 -34 -7 3 4 0 22 -8
42 -14 32 -14 36 2 48 18 13 52 20 40 8z m-137 -84 c-13 -9 -13 -11 0 -20 13
-8 12 -10 -3 -10 -10 0 -16 -4 -12 -9 3 -5 1 -13 -5 -16 -8 -5 -8 -11 0 -20 9
-11 6 -17 -14 -30 -34 -23 -47 -11 -44 37 2 33 8 44 33 59 32 20 74 28 45 9z
m183 -87 c-5 -11 -3 -14 6 -8 10 6 11 3 1 -15 -8 -15 -8 -20 -1 -16 6 4 11 2
11 -3 0 -6 -6 -11 -12 -12 -10 0 -10 -2 0 -6 19 -7 14 -19 -13 -31 -14 -7 -27
-12 -28 -12 -1 0 -2 16 -1 35 1 19 -3 38 -8 41 -6 4 -1 14 13 25 30 23 40 24
32 2z m-426 -89 c-9 -47 -15 -58 -41 -71 l-31 -16 20 23 c19 22 19 23 1 16
-16 -5 -17 -4 -7 8 7 8 10 20 6 26 -3 5 -1 10 4 10 6 0 11 5 11 11 0 6 -7 8
-17 5 -10 -4 -14 -4 -10 0 10 10 61 42 68 43 3 1 1 -24 -4 -55z m207 -49 c-15
-12 -16 -16 -5 -24 9 -6 10 -11 2 -15 -6 -4 -11 -16 -11 -26 0 -10 -5 -22 -10
-25 -7 -4 -9 5 -5 25 3 19 0 39 -7 48 -11 13 -11 14 1 7 11 -6 13 -4 8 8 -5
13 0 17 20 17 26 0 26 -1 7 -15z m244 -39 c-18 -13 -26 -32 -9 -22 5 3 9 -5 9
-18 0 -19 -3 -22 -13 -13 -7 7 -11 15 -9 19 2 4 -1 10 -7 14 -8 4 -4 11 12 20
31 17 39 17 17 0z m-5 -77 c4 -3 2 -11 -5 -17 -10 -8 -13 -5 -14 15 -1 13 1
21 5 16 3 -4 10 -10 14 -14z m-468 -10 c-4 -5 -12 -9 -18 -8 -9 0 -8 2 1 6 6
2 9 10 6 15 -4 7 -2 8 5 4 6 -4 9 -12 6 -17z m-5 -73 c0 -2 -6 -9 -14 -15 -11
-9 -16 -9 -22 0 -4 7 -3 9 4 5 6 -3 13 -2 17 4 6 10 15 14 15 6z"/>
<path d="M1805 2340 c3 -5 8 -10 11 -10 2 0 4 5 4 10 0 6 -5 10 -11 10 -5 0
-7 -4 -4 -10z"/>
<path d="M2252 2025 c0 -16 2 -22 5 -12 2 9 2 23 0 30 -3 6 -5 -1 -5 -18z"/>
<path d="M2262 1925 c-1 -33 3 -91 9 -130 5 -38 10 -81 10 -95 1 -28 17 -52
29 -45 5 3 12 -4 15 -16 14 -43 15 -10 1 37 -8 27 -18 62 -21 78 -5 23 -8 27
-16 15 -7 -11 -9 -9 -9 9 0 15 4 21 12 16 8 -5 9 2 3 27 -4 19 -13 63 -20 99
l-13 65 0 -60z"/>
<path d="M2302 1595 c0 -16 2 -22 5 -12 2 9 2 23 0 30 -3 6 -5 -1 -5 -18z"/>
</g>
</svg>
